<svg width="50" height="50" viewBox="0 0 50 50" fill="none" xmlns="http://www.w3.org/2000/svg">
<path d="M33.3333 33.3337C33.3333 31.0316 26.8041 29.167 18.7499 29.167M33.3333 33.3337C33.3333 35.6357 26.8041 37.5003 18.7499 37.5003C10.6958 37.5003 4.16659 35.6357 4.16659 33.3337M33.3333 33.3337V43.6191C33.3333 45.992 26.8041 47.917 18.7499 47.917C10.6958 47.917 4.16659 45.9941 4.16659 43.6191V33.3337M33.3333 33.3337C41.2999 33.3337 47.9166 31.2774 47.9166 29.167V8.33366M18.7499 29.167C10.6958 29.167 4.16659 31.0316 4.16659 33.3337M18.7499 29.167C9.54575 29.167 2.08325 27.1107 2.08325 25.0003V14.5837M18.7499 10.417C9.54575 10.417 2.08325 12.2816 2.08325 14.5837M2.08325 14.5837C2.08325 16.8857 9.54575 18.7503 18.7499 18.7503C18.7499 20.8607 25.527 22.917 33.4937 22.917C41.4603 22.917 47.9166 20.8607 47.9166 18.7503M47.9166 8.33366C47.9166 6.03158 41.4583 4.16699 33.4937 4.16699C25.5291 4.16699 19.0708 6.03158 19.0708 8.33366M47.9166 8.33366C47.9166 10.6357 41.4583 12.5003 33.4937 12.5003C25.5291 12.5003 19.0708 10.6357 19.0708 8.33366M19.0708 8.33366V29.5128" stroke="black" stroke-width="2"/>
</svg>
